<?xml version="1.0" standalone="no"?>
<!DOCTYPE svg PUBLIC "-//W3C//DTD SVG 20010904//EN"
 "http://www.w3.org/TR/2001/REC-SVG-20010904/DTD/svg10.dtd">
<svg version="1.0" xmlns="http://www.w3.org/2000/svg"
 width="700.000000pt" height="700.000000pt" viewBox="0 0 700.000000 700.000000"
 preserveAspectRatio="xMidYMid meet">
<metadata>
Created by potrace 1.14, written by Peter Selinger 2001-2017
</metadata>
<g transform="translate(0.000000,700.000000) scale(0.100000,-0.100000)"
fill="#000000" stroke="none">
<path d="M3133 6592 l-62 -3 45 -62 c98 -132 135 -242 140 -407 3 -137 -18
-238 -72 -344 -127 -250 -365 -398 -644 -398 -117 -1 -209 20 -315 72 -144 70
-273 197 -330 325 -15 33 -31 68 -36 78 -31 60 -52 276 -34 355 3 15 7 37 9
48 7 33 35 112 51 145 9 16 13 29 10 29 -20 0 -156 -66 -213 -103 -147 -97
-248 -233 -302 -411 -11 -34 -21 -74 -24 -91 -2 -16 -8 -50 -12 -75 -10 -67
-7 -277 6 -350 60 -345 270 -563 664 -689 115 -37 351 -85 491 -101 55 -6 114
-13 130 -15 181 -26 1547 -26 1730 0 17 2 74 9 128 15 102 12 104 12 207 30
649 114 956 410 962 928 1 84 -8 216 -17 252 -1 3 -5 21 -9 40 -41 185 -140
338 -291 450 -112 83 -327 163 -550 206 -22 4 -44 8 -50 9 -5 2 -46 8 -90 14
-308 45 -421 50 -1145 54 -173 1 -343 1 -377 -1z"/>
<path d="M2959 2626 c-2 -2 -60 -6 -129 -10 -69 -3 -136 -8 -150 -10 -14 -2
-54 -7 -90 -10 -36 -3 -74 -8 -85 -10 -11 -2 -40 -7 -65 -10 -302 -41 -606
-155 -778 -291 -221 -175 -323 -406 -324 -730 0 -308 90 -544 278 -727 147
-143 294 -216 584 -287 153 -38 257 -56 485 -85 172 -21 207 -24 335 -31 63
-4 126 -9 140 -11 33 -5 850 -5 915 0 28 3 86 8 130 11 151 12 180 16 332 41
264 44 498 121 666 221 55 32 115 81 182 148 146 146 214 272 255 476 22 109
30 295 16 399 -40 299 -198 528 -466 674 -204 111 -525 192 -880 221 -36 3
-83 8 -105 11 -43 6 -1240 16 -1246 10z m1151 -80 c8 -3 26 -7 40 -10 105 -18
255 -110 353 -216 82 -88 147 -214 173 -334 20 -95 15 -260 -11 -346 -113
-370 -473 -586 -845 -508 -268 57 -482 264 -550 533 -20 76 -27 214 -15 275
39 203 127 353 270 466 128 101 296 155 465 149 58 -2 112 -6 120 -9z"/>
</g>
</svg>
